<svg xmlns="http://www.w3.org/2000/svg" width="16" height="16.001" viewBox="0 0 16 16.001"> 
  <path id="ig" d="M19478,1644c-2.148,0-2.434-.009-3.3-.049a6.035,6.035,0,0,1-1.941-.372,4.109,4.109,0,0,1-2.338-2.342,5.949,5.949,0,0,1-.371-1.942c-.039-.846-.049-1.1-.049-3.3,0-2.116.008-2.413.049-3.3a6.037,6.037,0,0,1,.371-1.942,4.12,4.12,0,0,1,2.338-2.338,5.9,5.9,0,0,1,1.945-.372c.863-.04,1.148-.049,3.3-.049s2.434.009,3.3.049a5.907,5.907,0,0,1,1.945.372,4.12,4.12,0,0,1,2.338,2.338,6.037,6.037,0,0,1,.371,1.942c.041.888.049,1.185.049,3.3,0,2.195-.01,2.45-.049,3.3a5.949,5.949,0,0,1-.371,1.942,4.109,4.109,0,0,1-2.338,2.342,5.965,5.965,0,0,1-1.941.372C19480.434,1643.992,19480.148,1644,19478,1644Zm0-12.108a4.108,4.108,0,1,0,4.107,4.108A4.112,4.112,0,0,0,19478,1631.893Zm4.27-1.125a.961.961,0,1,0,.963.963A.962.962,0,0,0,19482.27,1630.768Zm-4.27,7.9a2.665,2.665,0,1,1,2.67-2.665A2.669,2.669,0,0,1,19478,1638.666Z" transform="translate(-19470 -1628)" fill="#fefefe"/> 
</svg> 
