<svg xmlns="http://www.w3.org/2000/svg" width="16" height="15.245" viewBox="0 0 16 15.245"> 
  <path id="line" d="M8,0c4.411,0,8,2.912,8,6.492a5.771,5.771,0,0,1-1.715,3.994A25.823,25.823,0,0,1,8,15.131c-.83.35-.734-.2-.7-.413l0-.018.114-.685a1.636,1.636,0,0,0-.026-.723c-.09-.223-.444-.339-.7-.4C2.846,12.39,0,9.7,0,6.492,0,2.912,3.59,0,8,0ZM5.022,7.686H3.5V4.918a.156.156,0,0,0-.155-.156H2.78a.156.156,0,0,0-.156.156V8.4a.153.153,0,0,0,.044.107h0l0,0,0,0a.154.154,0,0,0,.108.043H5.022A.155.155,0,0,0,5.177,8.4v-.56a.156.156,0,0,0-.155-.157Zm.791-2.924a.156.156,0,0,0-.156.156V8.4a.155.155,0,0,0,.156.155h.562A.155.155,0,0,0,6.53,8.4V4.918a.156.156,0,0,0-.155-.156Zm3.863,0a.156.156,0,0,0-.156.156v2.07l-1.6-2.156L7.91,4.817h0l-.01-.01,0,0-.011-.009h0l0,0,0,0-.005,0L7.864,4.78h0l0,0-.01,0,0,0-.01,0h0l-.009,0H7.232a.156.156,0,0,0-.156.155V8.405a.155.155,0,0,0,.156.155h.56a.156.156,0,0,0,.157-.155V6.335l1.6,2.16a.154.154,0,0,0,.039.038h0l.01.006,0,0,.008,0,.007,0,.005,0,.01,0h0a.155.155,0,0,0,.04.006h.56a.156.156,0,0,0,.157-.155V4.918a.156.156,0,0,0-.156-.156H9.676Zm3.815.717v-.56a.156.156,0,0,0-.155-.157H11.094a.155.155,0,0,0-.108.044h0v0l0,0a.155.155,0,0,0-.044.107V8.4a.153.153,0,0,0,.044.107l0,0,0,0a.155.155,0,0,0,.108.043h2.242a.155.155,0,0,0,.155-.156v-.56a.156.156,0,0,0-.155-.157H11.81V7.1h1.525a.155.155,0,0,0,.155-.156v-.56a.156.156,0,0,0-.155-.157H11.81V5.635h1.525a.155.155,0,0,0,.155-.156Z" fill="#fefefe"/> 
</svg> 
