<svg id="Group_66622" data-name="Group 66622" xmlns="http://www.w3.org/2000/svg" xmlns:xlink="http://www.w3.org/1999/xlink" width="136" height="116.43" viewBox="0 0 136 116.43">
  <defs>
    <clipPath id="clip-path">
      <rect id="Rectangle_138943" data-name="Rectangle 138943" width="136" height="116.43" fill="none"/>
    </clipPath>
    <clipPath id="clip-path-3">
      <rect id="Rectangle_138938" data-name="Rectangle 138938" width="40.297" height="39.715" fill="none"/>
    </clipPath>
    <clipPath id="clip-path-4">
      <rect id="Rectangle_138939" data-name="Rectangle 138939" width="58.208" height="74.082" fill="none"/>
    </clipPath>
    <clipPath id="clip-path-5">
      <rect id="Rectangle_138940" data-name="Rectangle 138940" width="74.669" height="67.688" fill="none"/>
    </clipPath>
    <clipPath id="clip-path-6">
      <rect id="Rectangle_138941" data-name="Rectangle 138941" width="28.977" height="28.978" fill="none"/>
    </clipPath>
  </defs>
  <g id="Group_66254" data-name="Group 66254" clip-path="url(#clip-path)">
    <g id="Group_66253" data-name="Group 66253" transform="translate(0 0)">
      <g id="Group_66252" data-name="Group 66252" clip-path="url(#clip-path)">
        <path id="Path_11443" data-name="Path 11443" d="M415.185,64.22a53.556,53.556,0,1,1-53.556-53.556A53.556,53.556,0,0,1,415.185,64.22" transform="translate(-293.371 -10.155)" fill="#f6edf4"/>
        <g id="Group_66242" data-name="Group 66242" transform="translate(14.041 41.83)" opacity="0.25" style="mix-blend-mode: multiply;isolation: isolate">
          <g id="Group_66241" data-name="Group 66241">
            <g id="Group_66240" data-name="Group 66240" clip-path="url(#clip-path-3)">
              <path id="Path_11444" data-name="Path 11444" d="M328.627,913.176a.644.644,0,0,1-.741-1.051,15.386,15.386,0,0,0,2.349-2.305.644.644,0,0,1,.995.819,16.693,16.693,0,0,1-2.546,2.5c-.019.014-.037.028-.057.04m-2.913,1.8a.653.653,0,0,1-.07.039,14.164,14.164,0,0,1-3.414,1.109.644.644,0,0,1-.236-1.266,12.883,12.883,0,0,0,3.1-1.009.644.644,0,0,1,.617,1.128m7.254-7.067a.644.644,0,0,1-.915-.843,16.835,16.835,0,0,0,1.229-3.066.644.644,0,1,1,1.237.36,18.126,18.126,0,0,1-1.324,3.3.64.64,0,0,1-.228.247m-13.933,8.273a.643.643,0,0,1-.411.095,11.27,11.27,0,0,1-3.5-.957.644.644,0,0,1,.535-1.172,9.953,9.953,0,0,0,3.1.848.644.644,0,0,1,.274,1.186m-6.168-2.768a.644.644,0,0,1-.766-.06,14.646,14.646,0,0,1-2.384-2.676.64.64,0,0,1-.058-.1.653.653,0,0,1,.025.153.645.645,0,0,1-.618.669,16.663,16.663,0,0,1-3.56-.232.644.644,0,1,1,.223-1.268,15.407,15.407,0,0,0,3.285.214.472.472,0,1,0,.863-.33.637.637,0,0,1,.9.161,13.38,13.38,0,0,0,2.174,2.441.644.644,0,0,1,.062.909.651.651,0,0,1-.143.122m3.112-3.826-.038.022a14.619,14.619,0,0,1-3.349,1.282.644.644,0,0,1-.316-1.249,13.3,13.3,0,0,0,3.054-1.167.644.644,0,0,1,.649,1.112m2.689-2.106a.644.644,0,0,1-.833-.963,5.646,5.646,0,0,0,.964-1.571,5.917,5.917,0,0,0,.329-1.191.644.644,0,0,1,1.27.217,7.215,7.215,0,0,1-.4,1.452,6.934,6.934,0,0,1-1.181,1.929.639.639,0,0,1-.147.127m1.3-6.48a.653.653,0,0,1-.185.079.644.644,0,0,1-.783-.467,6.762,6.762,0,0,0-.822-1.954,5.7,5.7,0,0,0-.6-.79.644.644,0,1,1,.954-.865,7.024,7.024,0,0,1,.734.969,8.062,8.062,0,0,1,.981,2.324.645.645,0,0,1-.282.7m-11,6.834a.624.624,0,0,1-.105.053.644.644,0,0,1-.837-.359,14.356,14.356,0,0,1-.831-2.927c-.026-.157-.056-.333-.086-.524a.644.644,0,0,1,1.273-.2c.029.188.058.36.084.512a13.079,13.079,0,0,0,.757,2.664.644.644,0,0,1-.254.783m-6.278,2.231a.644.644,0,0,1-.615.04c-.235-.109-.467-.226-.693-.349a11.649,11.649,0,0,1-2.317-1.66.644.644,0,0,1,.873-.948,10.373,10.373,0,0,0,2.062,1.477q.3.166.618.311a.644.644,0,0,1,.072,1.129m5.267-8.969a.644.644,0,0,1-.982-.622,6.553,6.553,0,0,1,1.4-3.478.644.644,0,1,1,.99.824,5.3,5.3,0,0,0-1.114,2.809.642.642,0,0,1-.3.468m7.541-4.861a.644.644,0,0,1-.51.077,6.214,6.214,0,0,0-3.075-.037.644.644,0,0,1-.313-1.25,7.422,7.422,0,0,1,3.723.043.644.644,0,0,1,.175,1.167m-17.807,9.27-.01.006a.644.644,0,0,1-.884-.218,16.069,16.069,0,0,1-1.478-3.251.644.644,0,1,1,1.223-.405,14.752,14.752,0,0,0,1.358,2.99.644.644,0,0,1-.208.878m-2.2-6.461a.644.644,0,0,1-.98-.452,24.721,24.721,0,0,1-.258-3.516.644.644,0,0,1,1.288,0,23.5,23.5,0,0,0,.244,3.333.645.645,0,0,1-.295.64m-.031-6.851a.644.644,0,0,1-.981-.63,23.638,23.638,0,0,1,.684-3.351l.032-.11a.644.644,0,0,1,1.235.367l-.028.1a22.306,22.306,0,0,0-.645,3.166.644.644,0,0,1-.3.461m1.931-6.563a.644.644,0,0,1-.922-.827,21.7,21.7,0,0,1,1.808-3.04.644.644,0,1,1,1.051.746,20.338,20.338,0,0,0-1.7,2.859.642.642,0,0,1-.236.262m3.95-5.587a.644.644,0,0,1-.805-.993,24.939,24.939,0,0,1,2.626-2.353.644.644,0,1,1,.789,1.018,23.641,23.641,0,0,0-2.489,2.231.65.65,0,0,1-.12.1" transform="translate(-294.248 -876.57)" fill="#3a7ec1"/>
            </g>
          </g>
        </g>
        <path id="Path_11445" data-name="Path 11445" d="M310.633,899.661a.644.644,0,0,1-.741-1.051,15.38,15.38,0,0,0,2.349-2.305.644.644,0,0,1,.995.819,16.7,16.7,0,0,1-2.546,2.5c-.019.014-.037.028-.057.04m-2.913,1.8a.651.651,0,0,1-.07.039,14.158,14.158,0,0,1-3.414,1.109.644.644,0,0,1-.236-1.266,12.883,12.883,0,0,0,3.1-1.009.644.644,0,0,1,.617,1.128m7.254-7.067a.644.644,0,0,1-.915-.843,16.837,16.837,0,0,0,1.229-3.065.644.644,0,1,1,1.237.36,18.134,18.134,0,0,1-1.324,3.3.641.641,0,0,1-.228.247m-13.933,8.273a.643.643,0,0,1-.411.095,11.264,11.264,0,0,1-3.5-.957.644.644,0,1,1,.535-1.172,9.956,9.956,0,0,0,3.1.848.644.644,0,0,1,.274,1.186m-6.168-2.768a.644.644,0,0,1-.766-.06,14.643,14.643,0,0,1-2.384-2.676.634.634,0,0,1-.058-.1.644.644,0,0,1-.593.822,16.668,16.668,0,0,1-3.56-.232.644.644,0,0,1,.223-1.268,15.4,15.4,0,0,0,3.285.214.473.473,0,1,0,.863-.33.637.637,0,0,1,.9.161,13.375,13.375,0,0,0,2.174,2.441.644.644,0,0,1,.062.909.653.653,0,0,1-.143.122m3.112-3.826-.038.022a14.608,14.608,0,0,1-3.349,1.282.644.644,0,1,1-.316-1.249,13.307,13.307,0,0,0,3.054-1.167.644.644,0,0,1,.649,1.112m2.689-2.106a.644.644,0,0,1-.833-.963,5.644,5.644,0,0,0,.964-1.571,5.916,5.916,0,0,0,.329-1.191.644.644,0,0,1,1.27.217,7.212,7.212,0,0,1-.4,1.452,6.935,6.935,0,0,1-1.181,1.929.642.642,0,0,1-.147.127m1.3-6.48a.651.651,0,0,1-.185.079A.644.644,0,0,1,301,887.1a6.762,6.762,0,0,0-.822-1.954,5.69,5.69,0,0,0-.6-.79.644.644,0,1,1,.954-.865,7.018,7.018,0,0,1,.734.969,8.062,8.062,0,0,1,.981,2.324.645.645,0,0,1-.282.7m-11,6.834a.629.629,0,0,1-.105.053.644.644,0,0,1-.837-.36,14.35,14.35,0,0,1-.831-2.927c-.026-.157-.056-.333-.086-.524a.644.644,0,0,1,1.273-.2c.029.188.058.36.084.512a13.083,13.083,0,0,0,.757,2.664.644.644,0,0,1-.254.783m-6.278,2.231a.644.644,0,0,1-.615.039c-.235-.109-.467-.226-.693-.349a11.641,11.641,0,0,1-2.317-1.66.644.644,0,0,1,.873-.948A10.372,10.372,0,0,0,284,895.116q.3.166.618.311a.644.644,0,0,1,.072,1.129m5.267-8.969a.644.644,0,0,1-.982-.623,6.553,6.553,0,0,1,1.4-3.478.644.644,0,1,1,.99.824,5.3,5.3,0,0,0-1.114,2.809.642.642,0,0,1-.3.468m7.541-4.862a.644.644,0,0,1-.51.077,6.215,6.215,0,0,0-3.075-.037.644.644,0,1,1-.313-1.25,7.422,7.422,0,0,1,3.723.043.644.644,0,0,1,.175,1.167M279.692,892l-.01.007a.644.644,0,0,1-.884-.218,16.069,16.069,0,0,1-1.478-3.251.644.644,0,1,1,1.223-.405,14.754,14.754,0,0,0,1.358,2.99.644.644,0,0,1-.208.878m-2.2-6.461a.636.636,0,0,1-.248.092.644.644,0,0,1-.731-.543,24.727,24.727,0,0,1-.258-3.516.644.644,0,1,1,1.288,0,23.511,23.511,0,0,0,.244,3.333.644.644,0,0,1-.295.64m-.031-6.851a.644.644,0,0,1-.981-.63,23.626,23.626,0,0,1,.684-3.351l.032-.11a.644.644,0,1,1,1.235.367l-.028.1a22.293,22.293,0,0,0-.645,3.166.644.644,0,0,1-.3.461m1.931-6.563a.644.644,0,0,1-.922-.827,21.693,21.693,0,0,1,1.808-3.04.644.644,0,0,1,1.051.746,20.344,20.344,0,0,0-1.7,2.859.642.642,0,0,1-.236.262m3.95-5.587a.644.644,0,0,1-.805-.993,24.954,24.954,0,0,1,2.626-2.353.644.644,0,1,1,.789,1.018,23.648,23.648,0,0,0-2.489,2.231.654.654,0,0,1-.12.1" transform="translate(-263.07 -821.87)" fill="#4d7393"/>
        <g id="Group_66245" data-name="Group 66245" transform="translate(42.969 42.349)" opacity="0.25" style="mix-blend-mode: multiply;isolation: isolate">
          <g id="Group_66244" data-name="Group 66244">
            <g id="Group_66243" data-name="Group 66243" clip-path="url(#clip-path-4)">
              <path id="Path_11446" data-name="Path 11446" d="M911.227,907.943l-3.833-20.489-4.333,3.9a7.855,7.855,0,0,0-2.476,7.253l10.348,56.491a7.748,7.748,0,0,0,1.372,3.2l0,.01a7.883,7.883,0,0,0,7.782,3.107l32.131-5.893a7.859,7.859,0,0,0,6.315-9.146l-8.381-45.707Z" transform="translate(-900.455 -887.454)" fill="#3a7ec1"/>
            </g>
          </g>
        </g>
        <path id="Path_11447" data-name="Path 11447" d="M989.824,598.86c-.157-.083-.31-.146-.462-.209l-17.877-6.924a7.885,7.885,0,0,0-8.1,1.487l-6.523,5.866-1.528,1.374-6.2,5.578a7.855,7.855,0,0,0-2.476,7.253l10.348,56.491a7.749,7.749,0,0,0,1.371,3.2l0,.01a7.883,7.883,0,0,0,7.782,3.107l32.131-5.893a7.86,7.86,0,0,0,6.315-9.146l-10.356-56.479a7.813,7.813,0,0,0-4.427-5.71m-20.343,4.7a3.837,3.837,0,1,1,3.077-4.462,3.833,3.833,0,0,1-3.077,4.462" transform="translate(-901.36 -562.989)" fill="#a2007d"/>
        <path id="Path_11448" data-name="Path 11448" d="M950.466,662.53A8.656,8.656,0,0,1,943.5,659c-.015-.021-.03-.044-.043-.067A8.54,8.54,0,0,1,942,655.5l-10.347-56.491a8.614,8.614,0,0,1,2.7-7.916l14.256-12.818a8.58,8.58,0,0,1,8.834-1.624l17.878,6.925c.182.074.348.145.52.233a8.551,8.551,0,0,1,4.818,6.226l10.356,56.479a8.587,8.587,0,0,1-6.892,9.982l-32.13,5.893a8.492,8.492,0,0,1-1.524.138m-5.768-4.322a7.2,7.2,0,0,0,7.033,2.77l32.13-5.893a7.149,7.149,0,0,0,5.738-8.31L979.243,590.3a7.112,7.112,0,0,0-4.02-5.187l-.034-.017c-.137-.072-.27-.126-.4-.181l-17.862-6.919a7.145,7.145,0,0,0-7.357,1.353l-14.253,12.816a7.168,7.168,0,0,0-2.25,6.587l10.348,56.493a6.987,6.987,0,0,0,1.244,2.9.757.757,0,0,1,.042.065m9.791-68.267a4.564,4.564,0,0,1-4.48-3.738,4.531,4.531,0,0,1,3.654-5.3,4.556,4.556,0,0,1,1.649,8.961h0a4.57,4.57,0,0,1-.819.074m-.007-7.674a3.141,3.141,0,0,0-.561.051,3.119,3.119,0,0,0,1.128,6.135,3.119,3.119,0,0,0-.567-6.186" transform="translate(-887.059 -548.586)" fill="#4d7393"/>
        <path id="Path_11449" data-name="Path 11449" d="M1066.393,936.839h0a1.425,1.425,0,0,1,1.141-1.654l36.9-6.761a1.421,1.421,0,1,1,.512,2.8l-36.9,6.761a1.425,1.425,0,0,1-1.654-1.142" transform="translate(-1015.483 -884.098)" fill="#f9c358"/>
        <path id="Path_11450" data-name="Path 11450" d="M1214.192,1261.614q-3.979.729-6.235-.666a6.233,6.233,0,0,1-2.814-4.436,6.955,6.955,0,0,1,.206-3.514,5.642,5.642,0,0,1,2.148-2.792,10.024,10.024,0,0,1,4.116-1.616,13.868,13.868,0,0,1,4.637-.183,5.34,5.34,0,0,1,3.131,1.59,6.793,6.793,0,0,1,1.616,3.525,7.664,7.664,0,0,1,.022,2.944,5.316,5.316,0,0,1-1.148,2.364,6.87,6.87,0,0,1-2.277,1.73,13.1,13.1,0,0,1-3.4,1.054m-.505-3.932a10.1,10.1,0,0,0,3.86-1.31,2.126,2.126,0,0,0,.861-2.289,2.193,2.193,0,0,0-.885-1.484,3.321,3.321,0,0,0-1.9-.492,16.642,16.642,0,0,0-2.986.322,17.23,17.23,0,0,0-2.979.771,3.379,3.379,0,0,0-1.614,1.125,2.177,2.177,0,0,0-.3,1.711,2.1,2.1,0,0,0,1.7,1.853,11.636,11.636,0,0,0,4.246-.207m8.319,16.858-31.147-12.223q-1.267-.457-1.42-1.291a1.6,1.6,0,0,1,.189-1.025,1.154,1.154,0,0,1,.859-.652,2.078,2.078,0,0,1,1.139.221l31.395,12.286a7.984,7.984,0,0,1,1.3.589,1.281,1.281,0,0,1,.566.919,1.437,1.437,0,0,1-.179,1.076,1.293,1.293,0,0,1-.9.563,4.346,4.346,0,0,1-1.807-.465m-18.964,11.159q-3.979.729-6.235-.666a6.233,6.233,0,0,1-2.814-4.436,6.93,6.93,0,0,1,.213-3.537,5.768,5.768,0,0,1,2.135-2.8,9.843,9.843,0,0,1,4.114-1.625q4.061-.744,6.4.431t2.954,4.55a7.577,7.577,0,0,1,.021,2.933,5.551,5.551,0,0,1-1.119,2.358,6.471,6.471,0,0,1-2.254,1.737,13.271,13.271,0,0,1-3.411,1.056m-.505-3.932a9.99,9.99,0,0,0,3.818-1.3,2.125,2.125,0,0,0,.861-2.29,2.234,2.234,0,0,0-.881-1.518,3.4,3.4,0,0,0-1.868-.508,15.033,15.033,0,0,0-2.991.3,10.571,10.571,0,0,0-3.973,1.341,2.151,2.151,0,0,0-.907,2.33,2.1,2.1,0,0,0,1.7,1.84,11.423,11.423,0,0,0,4.238-.194" transform="translate(-1132.659 -1188.719)" fill="#fff"/>
        <g id="Group_66248" data-name="Group 66248" transform="translate(49.68 45.24)" opacity="0.25" style="mix-blend-mode: multiply;isolation: isolate">
          <g id="Group_66247" data-name="Group 66247">
            <g id="Group_66246" data-name="Group 66246" clip-path="url(#clip-path-5)">
              <path id="Path_11451" data-name="Path 11451" d="M1089.618,948.03,1041.682,957a7.84,7.84,0,0,0,.693,7.339l31.732,47.869a7.754,7.754,0,0,0,2.518,2.4l.005.008a7.884,7.884,0,0,0,8.377-.2l27.224-18.055a7.859,7.859,0,0,0,2.209-10.892Z" transform="translate(-1041.079 -948.03)" fill="#3a7ec1"/>
            </g>
          </g>
        </g>
        <path id="Path_11452" data-name="Path 11452" d="M1140.294,628.242l-31.734-47.855a7.813,7.813,0,0,0-6.316-3.509c-.176-.015-.342-.012-.507-.01l-19.159.665a7.864,7.864,0,0,0-3.27.853l3.254,3.707c.036.041.058.09.092.132a3.814,3.814,0,1,1-2.582,5.895c-.006-.009-.009-.018-.014-.027a3.8,3.8,0,0,1,.737-5l-3.149-3.588a7.909,7.909,0,0,0-1.927,2.578l-2.173,4.686-.846,1.824-5.046,10.88a7.856,7.856,0,0,0,.576,7.642l31.732,47.868a7.755,7.755,0,0,0,2.518,2.4l.006.008a7.883,7.883,0,0,0,8.377-.2l27.224-18.055a7.86,7.86,0,0,0,2.209-10.892" transform="translate(-1016.012 -549.339)" fill="#fff"/>
        <path id="Path_11453" data-name="Path 11453" d="M1854.967,626.628a7.859,7.859,0,0,1-2.208,10.892l-27.224,18.055a7.883,7.883,0,0,1-8.377.2l-.005-.008c33.525-28.294,13.493-63.259-.236-80.506a7.812,7.812,0,0,1,6.316,3.509Z" transform="translate(-1730.214 -547.813)" fill="#e4ecf9"/>
        <path id="Path_11454" data-name="Path 11454" d="M1217.836,753.971h0a1.425,1.425,0,0,1,.4-1.97l31.269-20.73a1.421,1.421,0,1,1,1.57,2.369l-31.269,20.73a1.425,1.425,0,0,1-1.969-.4" transform="translate(-1159.498 -696.151)" fill="#a2007d"/>
        <path id="Path_11455" data-name="Path 11455" d="M1515.2,1085.333q-3.372,2.235-5.994,1.84a6.233,6.233,0,0,1-4.332-2.971,6.955,6.955,0,0,1-1.193-3.312,5.643,5.643,0,0,1,.876-3.412,10.023,10.023,0,0,1,3.149-3.1,13.872,13.872,0,0,1,4.192-1.993,5.339,5.339,0,0,1,3.5.23,6.792,6.792,0,0,1,2.872,2.606,7.665,7.665,0,0,1,1.178,2.7,5.316,5.316,0,0,1-.126,2.625,6.875,6.875,0,0,1-1.413,2.486,13.1,13.1,0,0,1-2.713,2.307m-2.011-3.417a10.1,10.1,0,0,0,3.034-2.723,2.125,2.125,0,0,0-.109-2.444,2.194,2.194,0,0,0-1.4-1.016,3.322,3.322,0,0,0-1.94.3,16.63,16.63,0,0,0-2.619,1.47,17.249,17.249,0,0,0-2.436,1.881,3.379,3.379,0,0,0-1.041,1.669,2.177,2.177,0,0,0,.4,1.691,2.1,2.1,0,0,0,2.287,1.037,11.63,11.63,0,0,0,3.822-1.86m14.279,12.227-33.444,1.013a1.887,1.887,0,0,1-1.813-.628,1.6,1.6,0,0,1-.229-1.017,1.153,1.153,0,0,1,.533-.937,2.073,2.073,0,0,1,1.134-.245l33.7-1.052a7.992,7.992,0,0,1,1.43.029,1.282,1.282,0,0,1,.882.623,1.438,1.438,0,0,1,.259,1.06,1.292,1.292,0,0,1-.6.871,4.349,4.349,0,0,1-1.844.283m-13.046,17.718q-3.372,2.235-5.995,1.84a6.233,6.233,0,0,1-4.332-2.971,6.924,6.924,0,0,1-1.195-3.335,5.769,5.769,0,0,1,.86-3.415,9.847,9.847,0,0,1,3.144-3.113q3.441-2.281,6.05-2.12t4.505,3.022a7.579,7.579,0,0,1,1.173,2.688,5.55,5.55,0,0,1-.1,2.608,6.475,6.475,0,0,1-1.389,2.484,13.269,13.269,0,0,1-2.721,2.312m-2.011-3.417a9.981,9.981,0,0,0,3-2.7,2.125,2.125,0,0,0-.109-2.444,2.235,2.235,0,0,0-1.407-1.049,3.4,3.4,0,0,0-1.917.268,15.042,15.042,0,0,0-2.632,1.453,10.575,10.575,0,0,0-3.125,2.8,2.151,2.151,0,0,0,.082,2.5,2.1,2.1,0,0,0,2.289,1.022,11.418,11.418,0,0,0,3.82-1.845" transform="translate(-1420.775 -1021.028)" fill="#a2007d"/>
        <path id="Path_11456" data-name="Path 11456" d="M944.564,421.278c-.034-.042-.057-.092-.092-.133l-3.254-3.707-5.717-6.514a8.916,8.916,0,0,0-6.586-3.07,6.907,6.907,0,0,0-6.929,7.944,8.918,8.918,0,0,0,3.937,6.108l5.978,3.951,1.528-1.374-6.409-4.236a6.9,6.9,0,0,1-3.063-4.716,4.92,4.92,0,0,1,4.962-5.689,6.9,6.9,0,0,1,5.089,2.394l5.549,6.323,3.149,3.588.272.31c.873.995.643,2.882-.513,4.208a4.365,4.365,0,0,1-.5.481c.006.009.009.018.014.027a3.8,3.8,0,0,0,1.476,1.293,6.528,6.528,0,0,0,.5-.494c1.8-2.069,2.042-4.909.6-6.694" transform="translate(-877.923 -388.391)" fill="#4d7393"/>
        <path id="Path_11457" data-name="Path 11457" d="M1093.878,644.726a8.635,8.635,0,0,1-5.991-1.05c-.023-.014-.045-.029-.066-.045a8.53,8.53,0,0,1-2.689-2.584L1053.4,593.18a8.613,8.613,0,0,1-.63-8.34l8.065-17.392a8.584,8.584,0,0,1,2.1-2.814.725.725,0,0,1,.521-.179.718.718,0,0,1,.495.243l3.149,3.588a.719.719,0,0,1-.076,1.023,3.091,3.091,0,0,0-.6,4.056c.009.014.02.032.03.05a3.164,3.164,0,0,0,4.3.854,3.114,3.114,0,0,0-2.224-5.668.719.719,0,0,1-.674-.258,1.343,1.343,0,0,1-.092-.13l-3.236-3.687a.718.718,0,0,1,.215-1.115,8.525,8.525,0,0,1,3.568-.93l19.161-.665c.213,0,.4,0,.592.013a8.527,8.527,0,0,1,6.856,3.828l31.734,47.854h0a8.588,8.588,0,0,1-2.412,11.888l-27.223,18.055a8.552,8.552,0,0,1-3.15,1.273m-5.2-2.252a7.205,7.205,0,0,0,7.556-.219l27.224-18.055a7.15,7.15,0,0,0,2.007-9.9l-31.735-47.855a7.111,7.111,0,0,0-5.737-3.187c-.188-.015-.328-.012-.467-.01l-19.156.665a6.982,6.982,0,0,0-2.1.4l2.47,2.814a4.547,4.547,0,1,1-1.745,8.587,4.5,4.5,0,0,1-1.751-1.538c-.011-.016-.023-.037-.035-.058a4.525,4.525,0,0,1,.372-5.4l-2.2-2.512a7.151,7.151,0,0,0-1.235,1.839l-8.064,17.389a7.168,7.168,0,0,0,.522,6.941l31.733,47.87a7.088,7.088,0,0,0,2.285,2.177.746.746,0,0,1,.064.043" transform="translate(-1001.782 -535.004)" fill="#4d7393"/>
        <g id="Group_66251" data-name="Group 66251" transform="translate(8.4 21.366)" opacity="0.25" style="mix-blend-mode: multiply;isolation: isolate">
          <g id="Group_66250" data-name="Group 66250">
            <g id="Group_66249" data-name="Group 66249" clip-path="url(#clip-path-6)">
              <path id="Path_11458" data-name="Path 11458" d="M190.528,447.745a14.489,14.489,0,1,0,14.489,14.489,14.489,14.489,0,0,0-14.489-14.489" transform="translate(-176.039 -447.745)" fill="#3a7ec1"/>
            </g>
          </g>
        </g>
        <path id="Path_11459" data-name="Path 11459" d="M225.017,400.415a14.489,14.489,0,1,1-14.489-14.489,14.489,14.489,0,0,1,14.489,14.489" transform="translate(-186.685 -367.51)" fill="#fff"/>
        <path id="Path_11460" data-name="Path 11460" d="M196.189,401.286A15.207,15.207,0,1,1,211.4,386.079a15.224,15.224,0,0,1-15.207,15.207m0-28.977a13.77,13.77,0,1,0,13.77,13.77,13.786,13.786,0,0,0-13.77-13.77" transform="translate(-172.345 -353.174)" fill="#4d7393"/>
        <path id="Path_11461" data-name="Path 11461" d="M384.8,525.1a3.007,3.007,0,0,0-1.384-1.268,9.889,9.889,0,0,0-1.763-.584c-.13-.033-.266-.064-.4-.092a.223.223,0,0,0-.07-.021l-.071-.011a1.159,1.159,0,0,0-.159-.037.939.939,0,0,1-.149-.033q-.985-.21-1.511-.372a2.726,2.726,0,0,1-.269-.1,1.806,1.806,0,0,1-.572-.368.871.871,0,0,1-.243-.805,1.455,1.455,0,0,1,.811-1.181,1.858,1.858,0,0,1,.37-.132,4.074,4.074,0,0,1,1.558-.018,5.309,5.309,0,0,1,1.133.3,6.12,6.12,0,0,1,.588.26,8.311,8.311,0,0,1,1.7,1.169l1.735-1.566a8.314,8.314,0,0,0-3.013-1.9c-.22-.081-.45-.153-.681-.214l.182-1.234a.625.625,0,0,0-.525-.706l-1.443-.213a.625.625,0,0,0-.706.525l-.19,1.287a5.406,5.406,0,0,0-1.191.148,3.3,3.3,0,0,0-1.8,1.074,4.136,4.136,0,0,0-.862,2.108,3.234,3.234,0,0,0,.259,2.106,2.8,2.8,0,0,0,1.25,1.167,8.257,8.257,0,0,0,1.3.475c.22.065.451.126.7.181a.6.6,0,0,1,.1.02c.031.007.063.015.094.019.062.017.13.035.2.049s.139.026.2.035c.546.124.993.238,1.345.342.1.031.194.058.279.087a2.277,2.277,0,0,1,.921.546,1.068,1.068,0,0,1,.264.957,1.5,1.5,0,0,1-.922,1.238,2.839,2.839,0,0,1-.988.2,6.159,6.159,0,0,1-1.25-.074,5.308,5.308,0,0,1-1.409-.419c-.167-.076-.333-.16-.5-.254a8.1,8.1,0,0,1-1.828-1.444l-1.711,1.569a7.18,7.18,0,0,0,1.384,1.306,7.565,7.565,0,0,0,1.707.911c.253.1.452.175.6.232l-.183,1.242a.625.625,0,0,0,.525.706l1.443.213a.625.625,0,0,0,.706-.525l.181-1.229a6.724,6.724,0,0,0,1.723-.134,3.5,3.5,0,0,0,1.923-1.066,4.024,4.024,0,0,0,.9-2.135,3.561,3.561,0,0,0-.289-2.34" transform="translate(-356.317 -491.343)" fill="#a2007d"/>
        <path id="Path_11462" data-name="Path 11462" d="M1673.794,5.75A5.754,5.754,0,1,1,1668.039,0a5.754,5.754,0,0,1,5.754,5.754" transform="translate(-1582.962 0.004)" fill="#eed0e6"/>
        <path id="Path_11464" data-name="Path 11464" d="M808.994,1884.684a2.937,2.937,0,1,1-2.937-2.937,2.937,2.937,0,0,1,2.937,2.937" transform="translate(-764.797 -1791.951)" fill="#eed0e6"/>
        <path id="Path_11465" data-name="Path 11465" d="M1391.027,428.808a2.077,2.077,0,1,1-2.077-2.077,2.077,2.077,0,0,1,2.077,2.077" transform="translate(-1320.693 -406.367)" fill="#eed0e6"/>
      </g>
    </g>
  </g>
</svg>
